<?xml version="1.0" encoding="UTF-8" standalone="no"?>
<!-- Created with Inkscape (http://www.inkscape.org/) -->

<svg
   xmlns:dc="http://purl.org/dc/elements/1.1/"
   xmlns:cc="http://creativecommons.org/ns#"
   xmlns:rdf="http://www.w3.org/1999/02/22-rdf-syntax-ns#"
   xmlns:svg="http://www.w3.org/2000/svg"
   xmlns="http://www.w3.org/2000/svg"
   xmlns:sodipodi="http://sodipodi.sourceforge.net/DTD/sodipodi-0.dtd"
   xmlns:inkscape="http://www.inkscape.org/namespaces/inkscape"
   width="149mm"
   height="75mm"
   viewBox="0 0 149 75"
   version="1.1"
   id="svg8"
   inkscape:version="0.92.3 (unknown)"
   sodipodi:docname="prep_logo_new.svg">
  <defs
     id="defs2" />
  <sodipodi:namedview
     id="base"
     pagecolor="#ffffff"
     bordercolor="#666666"
     borderopacity="1.0"
     inkscape:pageopacity="0.0"
     inkscape:pageshadow="2"
     inkscape:zoom="0.35"
     inkscape:cx="1428.5714"
     inkscape:cy="217.1429"
     inkscape:document-units="mm"
     inkscape:current-layer="g3748"
     showgrid="false"
     inkscape:window-width="1867"
     inkscape:window-height="1025"
     inkscape:window-x="53"
     inkscape:window-y="27"
     inkscape:window-maximized="1" />
  <metadata
     id="metadata5">
    <rdf:RDF>
      <cc:Work
         rdf:about="">
        <dc:format>image/svg+xml</dc:format>
        <dc:type
           rdf:resource="http://purl.org/dc/dcmitype/StillImage" />
        <dc:title></dc:title>
      </cc:Work>
    </rdf:RDF>
  </metadata>
  <g
     inkscape:label="Layer 1"
     inkscape:groupmode="layer"
     id="layer1"
     transform="translate(0,-222)">
    <g
       id="g3748"
       transform="translate(3.023809,-40.065476)">
      <path
         style="fill:#ffffff;stroke-width:0.24331741"
         d="m 1.1512191,323.9422 v -9.61104 l 4.075567,0.002 c 5.9900319,0.003 7.9613319,0.43229 9.6490509,2.10273 1.132926,1.12133 1.593184,2.40761 1.597678,4.465 0.0022,1.00369 -0.115439,2.26286 -0.261405,2.79816 -0.336469,1.23392 -2.474305,3.37416 -3.783715,3.78797 -0.5149,0.16272 -2.4417115,0.34556 -4.2817995,0.4063 l -3.345615,0.11033 v 2.77482 2.77483 H 2.9760998 1.1512191 Z m 9.3581099,0.58533 c 1.554682,-0.39146 2.376615,-1.36514 2.50998,-2.97332 0.07522,-0.90714 -0.01263,-1.53733 -0.288745,-2.07129 -0.710273,-1.37351 -1.364237,-1.61054 -4.8152835,-1.74531 l -3.1153235,-0.12166 5.103e-4,3.58893 5.132e-4,3.58894 h 2.325429 c 1.278986,0 2.801299,-0.11983 3.3829195,-0.26629 z m 7.488797,-0.5245 0.06366,-9.55021 4.014738,-0.0757 c 5.67105,-0.10687 8.143245,0.35158 9.875974,1.83145 2.903341,2.47964 2.580885,7.98936 -0.603383,10.30976 l -1.197935,0.87295 1.946698,2.89847 c 1.070681,1.59416 1.997667,2.9806 2.059966,3.08097 0.06229,0.10037 -0.821454,0.18249 -1.963895,0.18249 h -2.077167 l -1.647785,-2.8035 -1.647783,-2.80348 -2.554833,0.0662 -2.554833,0.0661 -0.0688,2.73732 -0.0688,2.73733 h -1.819737 -1.819734 z m 10.916582,0.12038 c 1.056156,-0.65274 1.435717,-1.42988 1.431015,-2.92998 -0.0045,-1.42891 -0.381485,-2.19108 -1.435015,-2.90105 -0.755192,-0.50893 -1.092661,-0.55477 -4.083718,-0.55477 h -3.2605 l 0.03667,3.34561 c 0.02017,1.84009 0.09436,3.44025 0.164888,3.5559 0.07053,0.11565 1.512885,0.16713 3.205243,0.1144 2.640923,-0.0823 3.199524,-0.17158 3.941426,-0.63011 z m 7.517537,-0.18121 v -9.61104 h 10.097674 10.097673 v 1.70924 1.70924 l -8.211964,-0.0191 -8.211962,-0.0191 -0.06964,2.3246 -0.06964,2.3246 h 4.631842 4.631842 v 1.58156 1.58157 H 44.705032 40.082 v 2.43318 2.43317 h 5.352984 5.352983 v 1.58156 1.58156 h -7.177863 -7.177865 v -9.61104 z m 16.545586,2.31152 v -7.29952 h 1.82488 1.824881 v 2.94482 2.94484 l 2.980639,-0.0939 c 4.348206,-0.13703 5.292153,-0.81694 5.292153,-3.8119 0,-1.34883 -0.05766,-1.4974 -0.85161,-2.19451 -0.468386,-0.41124 -0.851612,-0.78411 -0.851612,-0.82861 0,-0.0445 0.704239,-0.45716 1.564972,-0.91705 l 1.564971,-0.83615 0.605221,0.56858 c 2.457687,2.30888 1.951305,7.73274 -0.916003,9.81122 -1.485988,1.07719 -3.013398,1.41544 -6.391425,1.41544 h -2.997306 v 2.79815 2.79816 h -1.824881 -1.82488 z m 13.712362,6.50874 c 0.185039,-0.43493 2.047889,-4.66211 4.139659,-9.39374 2.091778,-4.73163 3.803228,-8.70517 3.803228,-8.8301 0,-0.12782 0.865836,-0.19624 1.980191,-0.15646 l 1.980192,0.0706 4.090584,9.36773 c 2.249825,5.15225 4.096064,9.44984 4.10275,9.55021 0.0064,0.10037 -0.855665,0.18249 -1.916333,0.18249 h -1.928481 l -0.795871,-1.94654 -0.795871,-1.94655 h -4.789094 -4.789103 l -0.803669,1.94655 -0.80367,1.94654 h -1.905472 -1.905475 z m 13.097835,-6.39181 c 0.148262,-0.14826 -3.006796,-7.65977 -3.217326,-7.65977 -0.108203,0 -2.410815,5.17587 -3.328555,7.48201 -0.09321,0.23424 0.630679,0.30415 3.149228,0.30415 1.798649,0 3.327139,-0.0568 3.396653,-0.12639 z m 7.984193,-2.45563 v -9.63821 l 5.1705,0.1083 c 5.794699,0.12136 7.112979,0.4164 8.672249,1.94088 1.42086,1.38915 1.84502,2.49484 1.8483,4.81807 0.003,1.84007 -0.0766,2.21172 -0.71785,3.36946 -0.43912,0.79278 -1.13511,1.58632 -1.78111,2.03079 -0.6468,0.44501 -1.01034,0.85973 -0.93218,1.06343 0.0704,0.18366 0.8796,1.45966 1.79807,2.83556 0.91845,1.37591 1.75087,2.63852 1.8498,2.8058 0.13814,0.23356 -0.30007,0.30415 -1.88848,0.30415 h -2.06837 l -1.6465,-2.79816 -1.646509,-2.79815 h -2.504074 -2.504084 v 2.79815 2.79816 h -1.824876 -1.824886 z m 10.612149,0.28956 c 1.09082,-0.64774 1.55372,-1.57909 1.55372,-3.12608 0,-1.40742 -0.47493,-2.30712 -1.53961,-2.91662 -0.31181,-0.17851 -1.850995,-0.3525 -3.753046,-0.42427 l -3.224462,-0.12166 4.87e-4,3.61771 4.87e-4,3.6177 3.102291,-0.0984 c 2.457553,-0.078 3.259783,-0.19192 3.860093,-0.54838 z m 11.52973,1.44085 v -7.90782 h -3.04147 -3.04147 v -1.70322 -1.70323 h 9.0023 9.0023 l 0.66957,1.1029 c 0.36827,0.60659 1.54552,2.63013 2.61611,4.49675 1.0706,1.86662 2.00128,3.39502 2.0682,3.39645 0.0669,0.002 1.27133,-2.02121 2.67649,-4.49473 l 2.55483,-4.49728 1.79009,-0.002 c 1.60497,-0.002 1.77327,0.042 1.62758,0.42376 -0.0894,0.2342 -1.63399,3.13577 -3.43249,6.44796 l -3.26996,6.02206 v 3.16308 3.16309 h -1.93984 -1.93984 l 0.0173,-3.12825 0.0173,-3.12823 -2.63964,-4.77866 -2.63964,-4.77864 -3.22396,-9.2e-4 -3.22396,-9.2e-4 v 7.90782 7.90781 h -1.82487 -1.82489 z M 52.83184,301.33801 c -0.670931,-0.67093 -0.827279,-1.01521 -0.827279,-1.82168 0,-0.89368 0.190298,-1.21042 1.878432,-3.12664 4.82087,-5.47219 6.70025,-7.36155 7.582944,-7.62319 0.507862,-0.15054 1.22241,-0.66124 1.69071,-1.20838 l 0.811094,-0.94762 -0.888212,-1.43903 c -3.067888,-4.97037 -2.265732,-11.15125 1.960264,-15.10446 2.608717,-2.44032 5.168346,-3.32778 9.01739,-3.12645 1.939268,0.10144 2.499807,0.2378 4.09863,0.99708 4.268725,2.02721 6.939913,6.16128 6.939913,10.74057 0,7.89542 -7.114467,13.4926 -14.836741,11.67254 -0.866765,-0.20429 -2.067519,-0.64618 -2.668328,-0.98198 l -1.092378,-0.61055 -1.031213,1.04641 c -0.615535,0.6246 -1.042562,1.2916 -1.059365,1.6547 -0.01548,0.33456 -0.102578,0.79069 -0.193542,1.01362 -0.20381,0.4995 -7.151275,8.27097 -8.130907,9.09527 -1.05801,0.89025 -2.212705,0.8085 -3.251412,-0.23021 z m 23.79037,-13.51975 c 1.716066,-0.64207 3.580679,-2.10376 4.549504,-3.56642 1.161422,-1.75344 1.611551,-3.34641 1.607348,-5.68834 -0.0037,-1.80838 -0.09988,-2.27236 -0.769257,-3.69346 -1.843655,-3.91407 -5.395936,-6.05065 -9.532804,-5.73366 -3.61911,0.27731 -6.354382,2.15224 -8.000189,5.48382 -0.865273,1.75155 -0.914673,1.97772 -0.914673,4.18763 0,2.21154 0.04893,2.43509 0.917875,4.19311 2.267206,4.58696 7.358804,6.60701 12.142196,4.81732 z"
         id="path3756"
         inkscape:connector-curvature="0" />
      <path
         style="fill:#92a538;stroke-width:0.24331741"
         d="m 2.0700909,333.61809 c 0.5722917,-0.0514 1.4482345,-0.0507 1.9465397,0.002 0.4983042,0.0523 0.030063,0.0943 -1.0405308,0.0934 -1.070597,-9.2e-4 -1.4783007,-0.0437 -0.9060089,-0.0951 z m 17.7478691,0.004 1.756182,-0.0898 0.0687,-2.72682 0.06871,-2.72681 2.372909,-0.014 2.372912,-0.014 -2.304194,0.0835 -2.304195,0.0835 -0.06871,2.7286 -0.06872,2.7286 -1.82488,0.0184 -1.824881,0.0184 1.75618,-0.0897 z m 10.203276,-0.008 c -0.06242,-0.10037 0.56071,-0.152 1.384714,-0.11473 2.683307,0.12135 3.000731,0.21856 0.843431,0.25828 -1.163067,0.0214 -2.165732,-0.0432 -2.228145,-0.14355 z m 13.514859,0.002 7.22551,-0.0701 0.09644,-1.09289 0.09644,-1.0929 -0.02243,1.15732 -0.02243,1.15733 -7.299523,0.006 -7.299523,0.006 7.225508,-0.0701 z m 10.360606,0.002 c 0.572293,-0.0514 1.448236,-0.0507 1.94654,0.002 0.498304,0.0522 0.03007,0.0943 -1.04053,0.0935 -1.070597,-9.2e-4 -1.478301,-0.0437 -0.90601,-0.0951 z m 13.382459,0 c 0.572293,-0.0514 1.448236,-0.0507 1.946544,0.002 0.498299,0.0522 0.03007,0.0943 -1.040537,0.0935 -1.070594,-9.2e-4 -1.478299,-0.0437 -0.906007,-0.0951 z m 16.668157,-7.4e-4 c 0.6397,-0.0503 1.625143,-0.0497 2.189857,0.002 0.564714,0.051 0.04129,0.0922 -1.163105,0.0914 -1.204414,-7.2e-4 -1.666462,-0.0425 -1.026752,-0.0928 z m 3.692432,-0.12627 c -0.06447,-0.16798 -0.08691,-4.19184 -0.04994,-8.94192 l 0.06722,-8.63649 0.05766,8.81002 0.05766,8.81002 1.88571,0.0829 1.885709,0.083 -1.893342,0.049 c -1.33227,0.0345 -1.928077,-0.0416 -2.010549,-0.25646 z m 13.210781,0.12727 c 0.56875,-0.0512 1.49944,-0.0512 2.06819,0 0.56876,0.0512 0.10341,0.0931 -1.0341,0.0931 -1.1375,0 -1.60285,-0.0419 -1.03409,-0.0931 z m 8.93078,-0.1281 c -0.0647,-0.16844 -0.087,-3.80908 -0.0497,-8.09031 l 0.0679,-7.78404 0.0573,7.9584 0.0573,7.95841 1.88572,0.0829 1.88571,0.083 -1.89335,0.049 c -1.3349,0.0345 -1.92801,-0.0414 -2.01086,-0.25729 z m 16.37423,0.1281 c 0.56876,-0.0512 1.49944,-0.0512 2.0682,0 0.56875,0.0512 0.10341,0.0931 -1.0341,0.0931 -1.13752,0 -1.60286,-0.0419 -1.0341,-0.0931 z M 5.9648949,328.02059 c 0.7070656,-0.0493 1.8019936,-0.0488 2.4331736,9.2e-4 0.63118,0.0499 0.05268,0.0903 -1.285572,0.0897 -1.3382462,-7.2e-4 -1.8546666,-0.0415 -1.1476016,-0.0908 z m 51.8266111,0 c 0.707066,-0.0493 1.801994,-0.0488 2.433174,9.2e-4 0.63118,0.0499 0.05268,0.0903 -1.285572,0.0897 -1.338247,-7.2e-4 -1.854668,-0.0415 -1.147602,-0.0908 z m 34.916775,-4.8e-4 c 0.774379,-0.0485 1.978803,-0.048 2.676485,9.2e-4 0.697692,0.049 0.0641,0.0887 -1.407945,0.0881 -1.472071,-4.9e-4 -2.04291,-0.0406 -1.26854,-0.089 z m -78.661238,-1.35589 c 0,-0.0419 0.355851,-0.39773 0.790781,-0.79078 l 0.790781,-0.71465 -0.714645,0.79079 c -0.666149,0.73711 -0.866917,0.90262 -0.866917,0.71464 z m 17.640513,-0.4105 c 0.24222,-0.26764 0.495146,-0.48664 0.562059,-0.48664 0.06691,0 -0.07652,0.219 -0.318741,0.48664 -0.24222,0.26765 -0.495147,0.48663 -0.56206,0.48663 -0.06691,0 0.07652,-0.21898 0.318742,-0.48663 z m 13.371256,-0.66603 4.247276,-0.075 0.08987,-1.57696 0.08987,-1.57697 -0.01805,1.64337 -0.01805,1.64337 -4.319095,0.008 -4.319099,0.008 4.247279,-0.075 z M 9.3783895,324.62761 c 0.175644,-0.0703 0.385505,-0.0616 0.46636,0.0192 0.08085,0.0808 -0.06286,0.13836 -0.319355,0.1278 -0.283452,-0.0117 -0.341106,-0.0693 -0.147005,-0.14701 z m 17.2755375,0 c 0.175643,-0.0703 0.385504,-0.0616 0.466359,0.0192 0.08085,0.0808 -0.06286,0.13836 -0.319354,0.1278 -0.283453,-0.0117 -0.341107,-0.0693 -0.147005,-0.14701 z m 34.794391,0 c 0.175644,-0.0703 0.385508,-0.0616 0.466359,0.0192 0.08085,0.0808 -0.06286,0.13836 -0.319353,0.1278 -0.283453,-0.0117 -0.341107,-0.0693 -0.147006,-0.14701 z m -39.763123,-3.72688 c 0,-1.80663 0.0383,-2.5457 0.08512,-1.64238 0.04682,0.90331 0.04682,2.38147 0,3.28478 -0.04682,0.90332 -0.08512,0.16423 -0.08512,-1.6424 z m 41.998603,3.07127 c 0,-0.0505 0.191612,-0.24214 0.425804,-0.42581 0.385917,-0.30266 0.394523,-0.29405 0.09187,0.0919 -0.317863,0.40531 -0.517673,0.53419 -0.517673,0.33394 z m -47.130669,-2.82794 c 0,-0.73604 0.04561,-1.03715 0.101364,-0.66913 0.05575,0.36801 0.05575,0.97023 0,1.33825 -0.05575,0.36801 -0.101364,0.0669 -0.101364,-0.66912 z m 41.777685,-2.16224 c -0.297397,-0.12164 -0.364894,-0.72004 -0.364526,-3.23175 2.43e-4,-1.69536 0.07129,-3.15331 0.157867,-3.23989 0.08658,-0.0865 0.798079,0.16564 1.581113,0.5605 0.783032,0.39485 2.1354,1.0138 3.005259,1.37545 2.474465,1.02877 2.522584,1.16998 0.710446,2.08474 -0.849229,0.42869 -1.93133,1.02383 -2.404667,1.32252 -0.473336,0.29869 -1.134344,0.62858 -1.468905,0.73308 -0.334561,0.1045 -0.66304,0.26979 -0.729952,0.36731 -0.06691,0.0975 -0.285898,0.11014 -0.486635,0.0281 z m 43.766096,-2.15665 c -0.30266,-0.38591 -0.29405,-0.39452 0.0919,-0.0919 0.4053,0.31786 0.5342,0.51766 0.33394,0.51766 -0.0505,0 -0.24214,-0.19161 -0.4258,-0.4258 z m -45.412869,-0.54746 c 0,-0.46839 0.05007,-0.66 0.111277,-0.42581 0.0612,0.23419 0.0612,0.61742 0,0.85161 -0.0612,0.23419 -0.111277,0.0426 -0.111277,-0.4258 z m 9.95344,0.23522 c -0.315933,-0.2632 -0.469768,-0.47854 -0.341859,-0.47854 0.12791,0 0.430741,0.21898 0.672961,0.48663 0.55644,0.61486 0.412436,0.61134 -0.331102,-0.008 z m 20.93886,-1.33016 c 0.0046,-0.40147 0.0595,-0.53625 0.121179,-0.29951 0.06171,0.23674 0.05766,0.56522 -0.0092,0.72995 -0.06667,0.16473 -0.117132,-0.029 -0.112166,-0.43044 z m -34.986604,-13.80826 -0.463518,-0.54746 0.547465,0.46352 c 0.51448,0.43559 0.658232,0.6314 0.463517,0.6314 -0.04618,0 -0.292531,-0.24635 -0.547464,-0.54746 z m 3.916196,-0.18249 c 0.24222,-0.26765 0.495146,-0.48663 0.562059,-0.48663 0.06691,0 -0.07652,0.21898 -0.318741,0.48663 -0.24222,0.26766 -0.495146,0.48664 -0.562059,0.48664 -0.06691,0 0.07652,-0.21898 0.318741,-0.48664 z m 1.824881,-2.0384 c 0,-0.0505 0.191613,-0.24214 0.425805,-0.42581 0.385916,-0.30265 0.394522,-0.29405 0.09187,0.0919 -0.317863,0.40531 -0.517673,0.5342 -0.517673,0.33394 z m -5.109666,-2.18986 c 0,-0.0505 0.191613,-0.24214 0.425805,-0.4258 0.385916,-0.30266 0.394522,-0.29405 0.09187,0.0919 -0.317863,0.4053 -0.517673,0.53419 -0.517673,0.33393 z m 7.299522,-0.24331 c 0,-0.0505 0.191614,-0.24214 0.425806,-0.42581 0.385916,-0.30266 0.394522,-0.29405 0.09187,0.0919 -0.317863,0.40531 -0.517673,0.5342 -0.517673,0.33395 z m 2.189857,-2.43318 c 0,-0.0505 0.191613,-0.24214 0.425806,-0.42581 0.385916,-0.30265 0.394522,-0.29405 0.09187,0.0919 -0.317862,0.40531 -0.517672,0.5342 -0.517672,0.33394 z m -4.988007,-2.3413 c 0.24222,-0.26766 0.495147,-0.48664 0.562059,-0.48664 0.06691,0 -0.07652,0.21898 -0.318742,0.48664 -0.24222,0.26764 -0.495145,0.48662 -0.562058,0.48662 -0.06691,0 0.07652,-0.21898 0.318741,-0.48662 z m 13.215176,-1.38281 c 0.175648,-0.0703 0.385507,-0.0616 0.46636,0.0192 0.08084,0.0808 -0.06281,0.13836 -0.319349,0.12779 -0.283456,-0.0117 -0.341107,-0.0693 -0.147011,-0.147 z M 59.66906,289.75611 c 0.24222,-0.26766 0.495145,-0.48664 0.562058,-0.48664 0.06691,0 -0.07652,0.21898 -0.318741,0.48664 -0.24222,0.26765 -0.495146,0.48663 -0.562058,0.48663 -0.06691,0 0.07652,-0.21898 0.318741,-0.48663 z m 12.485226,-1.3828 c 0.175639,-0.0703 0.385507,-0.0616 0.46636,0.0192 0.08083,0.0808 -0.06281,0.13835 -0.319358,0.12779 -0.283447,-0.0117 -0.341107,-0.0693 -0.147002,-0.147 z m 1.703219,0 c 0.175648,-0.0703 0.385507,-0.0616 0.46636,0.0192 0.08084,0.0808 -0.06281,0.13835 -0.319349,0.12779 -0.283456,-0.0117 -0.341107,-0.0693 -0.147011,-0.147 z m -10.660343,-1.14224 c 0,-0.0505 0.191613,-0.24214 0.425806,-0.42581 0.385916,-0.30266 0.394522,-0.29405 0.09187,0.0919 -0.317863,0.40531 -0.517673,0.5342 -0.517673,0.33395 z m 2.906711,-1.79385 -0.838513,-0.91244 0.912441,0.83851 c 0.501842,0.46118 0.91244,0.87179 0.91244,0.91244 0,0.1858 -0.205899,0.0108 -0.986368,-0.83851 z m 13.882187,0.0609 c 0.31431,-0.33456 0.62621,-0.6083 0.693121,-0.6083 0.06695,0 -0.135497,0.27374 -0.449797,0.6083 -0.31431,0.33456 -0.62621,0.60829 -0.693122,0.60829 -0.06695,0 0.135498,-0.27373 0.449798,-0.60829 z m -16.52637,-8.0498 c 0.01168,-0.28346 0.06933,-0.34111 0.147003,-0.147 0.07029,0.17564 0.06164,0.3855 -0.0192,0.46635 -0.08085,0.0808 -0.13836,-0.0628 -0.127795,-0.31935 z m 0.467425,-6.50377 c 0,-0.0418 0.355851,-0.39773 0.790782,-0.79079 l 0.790781,-0.71464 -0.714645,0.79078 c -0.666149,0.73712 -0.866918,0.90262 -0.866918,0.71465 z m 17.500439,-0.83631 -0.589875,-0.66912 0.669119,0.58988 c 0.6254,0.55133 0.780706,0.74837 0.589875,0.74837 -0.04359,0 -0.344685,-0.30111 -0.669119,-0.66913 z m -8.801841,-3.39567 c 0.301104,-0.058 0.793821,-0.058 1.094924,0 0.301113,0.058 0.05472,0.10545 -0.547462,0.10545 -0.602207,0 -0.848565,-0.0475 -0.547462,-0.10545 z"
         id="path3754"
         inkscape:connector-curvature="0" />
    </g>
  </g>
</svg>
